<svg xmlns="http://www.w3.org/2000/svg" viewBox="-650 -450 1100 800">
    <style>
      .metro-line {
        fill: none;
        stroke: currentColor;
        stroke-width: 8;
        stroke-linejoin: round;
        stroke-linecap: round;
      }
    </style>

    <path class="metro-line" 
          d="M -600 -60 L -570 -60 L -540 -60 L -510 -60 L -480 -60 L -450 -60 L -420 -60 L -390 -60 L -360 -60 L -330 -60 L -300 -30 L -270 0 L -240 0 L -210 0 L -180 0 L -150 0 L -120 0 L -90 0 L -60 0 L -30 0 L 0 0 L 20 20 L 50 20 L 80 20 L 110 20 L 140 20 L 170 20 L 200 20 L 230 20 L 260 20 L 290 20 L 320 20 L 350 20 L 380 20" />
  
    <path class="metro-line" 
          d="M -360 0 L -330 0 L -300 0 L -270 0 L -240 0 L -210 0 L -180 0 L -150 0 L -120 0 L -90 0 L -60 0 L -30 0 L 0 0 L 20 20 L 50 20 L 80 20 L 110 20 L 140 20 L 170 20 L 200 20 L 230 20 L 260 -10 L 260 -40 L 260 -70 L 260 -100 L 260 -130" />
  
    <path class="metro-line" 
          d="M -150 300 L -150 270 L -120 240 L -120 210 L -120 180 L -120 150 L -120 120 L -120 90 L -120 60 L -120 30 L -120 0 L -90 0 L -60 0 L -30 0 L 0 0 L 20 20 L 50 20 L 80 20 L 110 20 L 140 20 L 170 20 L 200 20 L 230 20 L 260 20 L 290 20 L 320 20 L 350 20 L 380 20" />
  
    <path class="metro-line" 
          d="M -120 300 L -120 270 L -120 240 L -120 210 L -120 180 L -120 150 L -120 120 L -120 90 L -120 60 L 40 60 L 80 20 L 80 10 L 80 0 L 80 -30" />
  
    <path class="metro-line" 
          d="M 290 80 L 260 80 L 230 80 L 200 80 L 170 80 L 140 80 L 110 80 L 80 50 L 80 20 L 80 10 L 80 0 L 80 -30 L 80 -60 L 80 -90 L 110 -120 L 140 -120 L 170 -120 L 200 -120 L 230 -120 L 260 -120 L 290 -120" />
  
    <path class="metro-line" 
          d="M -120 -420 L -90 -390 L -60 -360 L -60 -330 L -60 -300 L -60 -270 L -60 -240 L -60 -210 L -60 -180 L -60 -150 L -60 -120 L -60 -90 L -60 -60 L -30 -30 L 0 0 L 80 0 L 110 0 L 140 0 L 170 -30 L 170 -60 L 170 -90 L 170 -120 L 170 -150 L 170 -180 L 170 -210 L 170 -240 L 170 -270" />
  </svg>